<svg width="32" height="32" viewBox="0 0 32 32" fill="none" xmlns="http://www.w3.org/2000/svg">
<g clip-path="url(#clip0_2603_1747)">
<path d="M11.5598 22.3247L13.6752 20.2093C14.3605 20.5787 15.1185 20.766 15.8772 20.766C17.0658 20.766 18.2545 20.3127 19.1612 19.406C22.4452 16.122 21.9758 10.0233 21.9758 10.0233C21.9758 10.0233 21.6752 10 21.1705 10C19.4045 10 15.1478 10.284 12.5932 12.838C11.1072 14.324 10.8405 16.5653 11.7892 18.3247L9.67383 20.4393L11.5598 22.3247Z" fill="#F9F9F9"/>
<path d="M10.0147 11.7812L8.97932 9.32384L7.12332 10.1058C9.07466 7.18317 12.406 5.33317 16 5.33317C21.8813 5.33317 26.6667 10.1185 26.6667 15.9998H29.3333C29.3333 8.64784 23.352 2.6665 16 2.6665C11.348 2.6665 7.05332 5.1485 4.65666 9.02784L3.99866 7.08117L1.47266 7.93517L3.67599 14.4512L10.0147 11.7812Z" fill="#F9F9F9"/>
<path d="M21.9866 20.2187L23.022 22.676L24.878 21.894C22.9266 24.8167 19.5953 26.6667 16.0013 26.6667C10.12 26.6667 5.33464 21.8813 5.33464 16H2.66797C2.66797 23.352 8.6493 29.3333 16.0013 29.3333C20.6533 29.3333 24.948 26.8513 27.3446 22.972L28.0026 24.9187L30.5286 24.0647L28.3253 17.5487L21.9866 20.2187Z" fill="#F9F9F9"/>
</g>
<defs>
<clipPath id="clip0_2603_1747">
<rect width="32" height="32" fill="white"/>
</clipPath>
</defs>
</svg>
