<svg width="32" height="32" viewBox="0 0 32 32" fill="none" xmlns="http://www.w3.org/2000/svg">
<path d="M15.9599 8.81552C15.4974 9.03946 15.0391 9.34977 14.6141 9.77533C12.4834 11.9065 10.5465 13.8433 10.5465 13.8433L10.5473 13.8446C10.5358 13.8562 10.5241 13.8657 10.5125 13.8777C9.96102 14.4296 9.93915 15.3095 10.4485 15.8868C10.4686 15.91 10.4902 15.9328 10.5125 15.9547C11.0851 16.5281 12.0148 16.5295 12.5895 15.9547L14.8268 13.7174C15.2128 13.8588 15.5923 13.9413 15.9565 13.9826C16.4525 14.0376 16.9185 14.017 17.3328 13.9585C18.343 13.8154 18.2372 13.8571 18.8231 13.6645C19.4076 13.4728 20.0645 13.0799 20.0645 13.0799L20.4621 13.4771C20.5059 13.5196 21.5195 14.5349 22.0366 15.0511C22.1281 15.1431 22.2059 15.2188 22.258 15.273C22.3177 15.3353 22.3843 15.3804 22.4256 15.4406L25.0055 18.0205C25.7491 17.1861 26.5985 15.9435 26.4936 14.5169L20.0472 8.0714C20.0472 8.0714 17.8159 7.91196 15.9599 8.81552Z" fill="#F9F9F9"/>
<path d="M16.3199 24.6478C15.749 24.0761 14.8223 24.0761 14.2511 24.6478L13.8264 25.0724C14.3964 24.5017 14.3959 23.577 13.8251 23.0058C13.2539 22.4354 12.3284 22.4354 11.7572 23.0062C12.3284 22.4354 12.3284 21.51 11.7572 20.9383C11.1864 20.3665 10.2605 20.3675 9.68925 20.9383C10.2605 20.3675 10.2605 19.4416 9.68925 18.8698C9.11837 18.2991 8.19256 18.2991 7.62125 18.8707L6.3425 20.149C5.77125 20.7207 5.77125 21.6457 6.3425 22.2174C6.91331 22.7883 7.83881 22.7883 8.41 22.2174C7.83875 22.7883 7.83875 23.7141 8.41 24.2853C8.98169 24.8562 9.90713 24.8562 10.4784 24.2853C9.90713 24.8562 9.90713 25.7817 10.4784 26.3533C11.0496 26.9242 11.9751 26.9242 12.5464 26.3533L12.9715 25.9278C12.4016 26.4995 12.4019 27.424 12.9728 27.9953C13.544 28.5661 14.4694 28.5661 15.0408 27.9953L16.3199 26.7161C16.8907 26.144 16.8907 25.2186 16.3199 24.6478Z" fill="#F9F9F9"/>
<path d="M31.7487 11.1426L24.221 3.61394C23.8865 3.28038 23.3458 3.28038 23.0123 3.61394L20.5978 6.02832C20.2643 6.36188 20.2643 6.90263 20.5978 7.23663L28.1265 14.7648C28.4596 15.0992 29.0012 15.0992 29.3343 14.7648L31.7487 12.3499C32.0831 12.0173 32.0831 11.4766 31.7487 11.1426ZM29.603 12.8121C29.2436 13.1706 28.6625 13.1706 28.3044 12.8121C27.946 12.4531 27.946 11.872 28.3044 11.5135C28.6625 11.155 29.2436 11.155 29.603 11.5135C29.9615 11.872 29.961 12.4531 29.603 12.8121Z" fill="#F9F9F9"/>
<path d="M11.401 6.24169L8.98705 3.82732C8.65355 3.49376 8.11236 3.49376 7.7788 3.82732L0.250172 11.3559C-0.0833906 11.6886 -0.0833906 12.2302 0.250172 12.5633L2.66461 14.9786C2.99773 15.3118 3.53973 15.3118 3.87242 14.9786L11.401 7.44994C11.735 7.11638 11.735 6.57563 11.401 6.24169ZM3.69486 13.0254C3.33636 13.3834 2.75486 13.3834 2.3963 13.0254C2.03786 12.6665 2.03786 12.0853 2.3963 11.7268C2.7548 11.3684 3.33636 11.3684 3.69486 11.7268C4.05336 12.0853 4.05336 12.6664 3.69486 13.0254Z" fill="#F9F9F9"/>
<path d="M24.8461 19.5504L24.3793 19.0828L19.8475 14.551L19.5423 14.6864L19.2101 14.8063L19.1861 14.8136C19.1276 14.8321 18.5808 14.9993 17.5028 15.1519C16.9328 15.2314 16.3681 15.2413 15.8213 15.179C15.6052 15.1549 15.3902 15.1196 15.1778 15.0733L13.443 16.8073C12.4007 17.8496 10.7033 17.8496 9.6609 16.8073C9.62434 16.7703 9.58909 16.7329 9.55646 16.6959L9.54528 16.6834C8.88721 15.9373 8.72003 14.9159 9.02953 14.0296L9.69659 12.9916L9.69534 12.9903L13.7629 8.9232C13.9283 8.75813 14.102 8.60426 14.2825 8.45895C13.015 8.21007 11.9515 8.28357 11.9515 8.28357L5.5064 14.7298C5.41959 15.9166 6.23459 17.2173 6.8144 17.9768C7.85765 16.9791 9.51684 16.9921 10.542 18.0177C10.9237 18.3989 11.164 18.8688 11.2653 19.3613C11.7588 19.4636 12.2282 19.7035 12.6099 20.0852C12.9916 20.4673 13.2319 20.9371 13.3333 21.4301C13.8263 21.5316 14.2966 21.7714 14.6779 22.1531C14.9328 22.408 15.1249 22.7021 15.2543 23.0167C15.948 23.0081 16.6444 23.2677 17.1723 23.7951C18.2129 24.8349 18.2125 26.5284 17.1723 27.5678L16.7467 27.9942L16.9599 28.2074C17.5317 28.7791 18.457 28.7791 19.0283 28.2074C19.5996 27.6366 19.5996 26.7108 19.0283 26.1394L19.4538 26.5663C20.0255 27.1371 20.9505 27.1371 21.5218 26.5663C22.093 25.9946 22.0935 25.0692 21.5218 24.4975C22.0935 25.0692 23.0185 25.0692 23.5897 24.4975C24.1606 23.9271 24.1618 23.0013 23.5897 22.4295C24.1618 23.0013 25.0868 23.0013 25.6577 22.4295C26.2294 21.8588 26.2294 20.9328 25.6577 20.362L24.8461 19.5504Z" fill="#F9F9F9"/>
</svg>
