<svg width="32" height="32" viewBox="0 0 32 32" fill="none" xmlns="http://www.w3.org/2000/svg">
<path d="M15.9996 7.39025C18.0401 7.39025 19.6949 5.73588 19.6949 3.69537C19.6949 1.65488 18.0401 0 15.9996 0C13.959 0 12.3047 1.65481 12.3047 3.69537C12.3047 5.73594 13.9591 7.39025 15.9996 7.39025Z" fill="#F9F9F9"/>
<path d="M16.0004 14.2626C18.5387 14.2626 21.1382 13.3837 20.7326 10.9502C20.5674 9.96198 19.7502 8.57666 19.1295 7.95641C19.0491 7.87654 18.6852 7.85566 18.5864 7.91691C17.8331 8.38154 16.9487 8.65241 16.0004 8.65241C15.0525 8.65241 14.1681 8.38154 13.4149 7.91691C13.316 7.85566 12.952 7.87654 12.8717 7.95641C12.2515 8.57666 11.4334 9.96198 11.2686 10.9502C10.863 13.3837 13.4626 14.2626 16.0004 14.2626Z" fill="#F9F9F9"/>
<path d="M5.98009 25.1276C8.02059 25.1276 9.67547 23.4732 9.67547 21.4327C9.67547 19.3917 8.02066 17.7373 5.98009 17.7373C3.93953 17.7373 2.28516 19.3917 2.28516 21.4327C2.28522 23.4732 3.93959 25.1276 5.98009 25.1276Z" fill="#F9F9F9"/>
<path d="M9.10985 25.6946C9.02954 25.6138 8.66566 25.5938 8.56673 25.6546C7.81304 26.1193 6.92916 26.3898 5.98079 26.3898C5.03248 26.3898 4.14854 26.1193 3.39529 25.6546C3.29635 25.5939 2.93198 25.6138 2.85173 25.6946C2.23141 26.3144 1.41379 27.6997 1.2491 28.6879C0.843413 31.1214 3.44298 31.9999 5.98079 31.9999C8.5191 31.9999 11.1187 31.1214 10.7129 28.6879C10.5478 27.6997 9.73016 26.3144 9.10985 25.6946Z" fill="#F9F9F9"/>
<path d="M26.0196 25.1276C28.0601 25.1276 29.7145 23.4732 29.7145 21.4327C29.7145 19.3917 28.0601 17.7373 26.0196 17.7373C23.9791 17.7373 22.3242 19.3917 22.3242 21.4327C22.3243 23.4732 23.9791 25.1276 26.0196 25.1276Z" fill="#F9F9F9"/>
<path d="M30.7518 28.6879C30.5871 27.6997 29.7695 26.3144 29.1492 25.6946C29.0688 25.6138 28.7045 25.5938 28.6056 25.6546C27.8523 26.1193 26.9685 26.3898 26.0201 26.3898C25.0718 26.3898 24.1878 26.1193 23.4342 25.6546C23.3352 25.5939 22.9713 25.6138 22.891 25.6946C22.2708 26.3144 21.4533 27.6997 21.2882 28.6879C20.8825 31.1214 23.4818 31.9999 26.0201 31.9999C28.558 31.9999 31.1575 31.1214 30.7518 28.6879Z" fill="#F9F9F9"/>
<path d="M21.0159 23.1855L16.6104 20.6422V15.5557C16.6104 15.219 16.3377 14.9463 16.001 14.9463C15.6647 14.9463 15.3921 15.219 15.3921 15.5557V20.6422L10.9866 23.1855C10.6953 23.3538 10.595 23.7269 10.7633 24.0181C10.9317 24.3095 11.3046 24.4092 11.5959 24.2414L16.0009 21.6976L20.4064 24.2409C20.6977 24.4092 21.0703 24.3094 21.2386 24.018C21.407 23.7269 21.3071 23.3538 21.0159 23.1855Z" fill="#F9F9F9"/>
</svg>
