<svg width="32" height="32" viewBox="0 0 32 32" fill="none" xmlns="http://www.w3.org/2000/svg">
<mask id="mask0_2603_1762" style="mask-type:luminance" maskUnits="userSpaceOnUse" x="0" y="6" width="32" height="20">
<path d="M31.9583 6.68213H0.146484V25.3174H31.9583V6.68213Z" fill="white"/>
</mask>
<g mask="url(#mask0_2603_1762)">
<path d="M30.0276 6.75604C29.4394 6.70534 28.9987 6.82332 28.681 7.11532C28.267 7.49552 28.0669 8.16058 28.0524 9.20584C27.71 9.59622 27.3688 9.98453 27.0288 10.3708C26.2433 11.2637 25.4313 12.1869 24.6429 13.0977C23.8546 14.0086 23.0593 14.942 22.2902 15.8446C21.96 16.2318 21.6297 16.6194 21.2987 17.0074C21.2093 17.0054 21.1162 16.9989 21.0185 16.9921C20.7295 16.9541 20.4362 16.969 20.1528 17.0362C19.7755 17.1507 19.5514 17.0437 19.2197 16.7772C17.3941 15.3122 15.6974 14.1738 14.0325 13.2975C13.9018 13.2374 13.7866 13.1477 13.696 13.0354C13.6055 12.923 13.5419 12.7911 13.5103 12.6498C13.3782 12.1419 13.0536 11.7065 12.6062 11.4374C12.159 11.1682 11.6246 11.087 11.1184 11.2111C10.6037 11.3322 10.1534 11.6447 9.85727 12.086C9.56116 12.5273 9.44112 13.065 9.52116 13.5917C9.54181 13.7308 9.56679 13.87 9.59081 14.0025L9.61008 14.1114L2.92447 20.592C2.8905 20.5888 2.85663 20.585 2.8229 20.5815C2.71148 20.5694 2.59617 20.5573 2.48058 20.5543C1.37485 20.5222 0.695149 21.0098 0.340178 22.0892C0.0739192 22.8987 0.365385 23.6212 0.607875 24.0944C0.772165 24.4343 1.02237 24.7247 1.33336 24.9361C1.64435 25.1476 2.00511 25.2729 2.37936 25.2991C2.41705 25.3012 2.45464 25.3022 2.49219 25.3023C2.85243 25.2969 3.2057 25.201 3.52007 25.0236C3.83442 24.8461 4.09998 24.5926 4.29285 24.2858C4.86906 23.4129 4.95862 22.5947 4.56489 21.7877L11.0522 15.5587L12.8594 14.996L18.2206 18.7033C18.2628 19.5007 18.4598 20.0986 18.8556 20.6346C19.086 20.9639 19.4205 21.2047 19.8043 21.3177C20.1882 21.4306 20.5985 21.409 20.9686 21.2564C22.0383 20.8467 22.6324 19.9387 22.6043 18.761L29.1107 10.6155C30.0336 10.797 30.75 10.7123 31.2408 10.3626C31.6202 10.0926 31.8512 9.67404 31.9271 9.11848C31.9706 8.83835 31.9566 8.55215 31.886 8.27765C31.8155 8.00317 31.6897 7.74622 31.5165 7.52274C31.3336 7.29906 31.1071 7.11561 30.8509 6.98373C30.5949 6.85185 30.3146 6.77436 30.0276 6.75604Z" fill="#F9F9F9"/>
</g>
</svg>
