<svg width="32" height="32" viewBox="0 0 32 32" fill="none" xmlns="http://www.w3.org/2000/svg">
<g clip-path="url(#clip0_7000_2404)">
<path d="M8.75409 1.14478H5.54227L0.0253906 25.7664H2.3528L3.35369 21.2864H3.38543L4.08161 18.1749H4.05223L7.12524 4.56398L10.2206 18.1749H10.2182L11.9436 25.7664H14.2709L8.75409 1.14478Z" fill="#3C3C3B"/>
<path d="M16.119 19.9333H14.0588L9.79883 1.14453H11.9453L16.119 19.9333Z" fill="#3C3C3B"/>
<path d="M14.0586 19.9333H16.1189L20.2426 1.14453H18.0962L14.0586 19.9333Z" fill="#3C3C3B"/>
<path d="M25.2431 23.3011L23.5724 24.7828L18.1074 1.14453H20.2538L25.2431 23.3011Z" fill="#3C3C3B"/>
<path d="M30.0797 14.4688C29.4177 16.0576 28.632 17.4645 27.8007 18.8184C27.6648 19.0407 27.5264 19.2616 27.388 19.4814C27.3683 19.513 27.3476 19.5445 27.3278 19.5761C27.1361 19.8754 26.9496 20.1823 26.7691 20.493C26.623 20.7418 26.4802 20.9957 26.3401 21.2508C26.1733 21.5539 26.0108 21.8607 25.8509 22.169C25.7933 22.2801 25.7366 22.3912 25.6798 22.5024C25.6094 22.6438 25.5431 22.7853 25.4795 22.9267C25.3437 23.2311 25.2234 23.5379 25.1185 23.8448C25.0316 24.0961 24.956 24.3488 24.8889 24.6026C24.809 24.907 24.7419 25.2126 24.6886 25.5208C24.6439 25.7721 24.6078 26.0246 24.5812 26.2785C24.5468 26.5817 24.5253 26.8885 24.5141 27.1967C24.5047 27.448 24.5021 27.7006 24.5055 27.9545C24.5107 28.2651 24.5253 28.5783 24.5494 28.8941C24.5674 29.1454 24.5924 29.398 24.6215 29.6518C24.6998 30.3186 24.8133 30.9956 24.9551 31.6877C24.5967 31.0664 24.2949 30.3805 24.0585 29.6518C23.9777 29.403 23.9046 29.1505 23.8393 28.8941C23.761 28.5859 23.694 28.2727 23.639 27.9545C23.5959 27.7044 23.5599 27.4518 23.5315 27.1967C23.498 26.8936 23.4748 26.5867 23.4636 26.2785C23.4541 26.0272 23.4524 25.7746 23.4593 25.5208C23.4661 25.2151 23.4851 24.9083 23.516 24.6026C23.5418 24.3488 23.5762 24.0961 23.6183 23.8448C23.6459 23.6819 23.6776 23.5203 23.712 23.3599C23.7413 23.2146 23.773 23.0694 23.8083 22.9267C23.8694 22.6691 23.9398 22.4165 24.0172 22.169C24.1135 21.8557 24.221 21.5501 24.3362 21.2508C24.435 20.9931 24.5399 20.7406 24.65 20.493C24.7866 20.1798 24.9302 19.8742 25.0772 19.5761C25.0987 19.5307 25.121 19.4852 25.1434 19.441C25.2346 19.2402 25.3385 19.0306 25.4503 18.8184C25.9163 17.9292 26.524 16.9681 26.9685 16.1953C29.2871 12.2308 31.7681 7.57697 29.0309 2.63379C30.3918 3.62773 31.291 5.81895 31.383 8.04422C31.5008 10.3314 30.8723 12.5554 30.0797 14.4688Z" fill="#3C3C3B"/>
<path d="M28.057 13.4888C27.6994 14.1885 27.4148 14.6722 27.0306 15.3365C26.3222 14.5573 25.6594 13.6909 25.0559 12.7462C24.896 12.4987 24.7421 12.246 24.5917 11.9885C24.4171 11.6891 24.2486 11.3835 24.0861 11.0703C23.9563 10.8215 23.8308 10.5702 23.7096 10.3125C23.5867 10.0537 23.4672 9.78964 23.3537 9.52193C23.2677 9.3236 23.1852 9.12281 23.1044 8.9208C23.0855 8.86895 23.0666 8.81595 23.0494 8.76421C21.8948 5.43758 22.7726 2.09588 24.8031 0.0473633C24.3277 0.697772 23.9082 1.49972 23.6159 2.37878C23.5334 2.62628 23.4612 2.8789 23.401 3.13652C23.3382 3.40549 23.2875 3.67828 23.2523 3.95488C23.2196 4.20619 23.199 4.45882 23.1912 4.71269C23.1844 4.97785 23.1912 5.24434 23.2145 5.51082C23.2342 5.74323 23.2669 5.97559 23.3124 6.20668C23.3158 6.22692 23.3202 6.24841 23.3245 6.26865C23.3786 6.55148 23.4491 6.82425 23.5325 7.08822C23.6142 7.34967 23.7087 7.60231 23.8128 7.846C23.9494 8.16676 24.1042 8.47241 24.271 8.76421C24.326 8.86263 24.3836 8.95868 24.4421 9.05342C24.5366 9.21001 24.632 9.3666 24.7275 9.52193C24.8917 9.78964 25.0576 10.0549 25.2278 10.3125C25.4006 10.5739 25.5786 10.8278 25.7625 11.0703C25.8709 11.2105 25.9809 11.3482 26.0944 11.4807C26.2405 11.65 26.3875 11.8205 26.5354 11.9885C26.7649 12.2486 26.997 12.5038 27.2352 12.7462C27.5008 13.0153 27.7725 13.2678 28.057 13.4888Z" fill="#3C3C3B"/>
<path d="M30.3084 27.8531C31.3959 26.1595 31.7372 23.6664 31.2257 21.4878C30.9084 20.086 30.2585 18.938 29.4728 18.0502C29.3008 17.8481 29.1263 17.6511 28.9492 17.4616C29.22 16.9729 29.4823 16.4715 29.7316 15.9524C29.9207 16.224 30.1055 16.5018 30.2843 16.7873C30.6729 17.4036 31.0546 18.0855 31.3246 18.8282C32.4628 21.7884 32.1567 25.6897 30.3084 27.8531Z" fill="#3C3C3B"/>
<path d="M27.6214 3.13591H23.3946C23.2522 3.13591 23.1367 2.96627 23.1367 2.75704C23.1367 2.54781 23.2522 2.37817 23.3946 2.37817H27.6214C27.7638 2.37817 27.8793 2.54781 27.8793 2.75704C27.8793 2.96627 27.7638 3.13591 27.6214 3.13591Z" fill="#3C3C3B"/>
<path d="M28.5445 4.71306H23.0508C22.9084 4.71306 22.793 4.54342 22.793 4.33419C22.793 4.12496 22.9084 3.95532 23.0508 3.95532H28.5445C28.687 3.95532 28.8024 4.12496 28.8024 4.33419C28.8024 4.54342 28.687 4.71306 28.5445 4.71306Z" fill="#3C3C3B"/>
<path d="M28.8885 6.26857H22.9649C22.8225 6.26857 22.707 6.09889 22.707 5.88968C22.707 5.68047 22.8225 5.51074 22.9649 5.51074H28.8885C29.0309 5.51074 29.1464 5.68047 29.1464 5.88968C29.1464 6.09889 29.0309 6.26857 28.8885 6.26857Z" fill="#3C3C3B"/>
<path d="M28.9744 7.84572H23.0508C22.9084 7.84572 22.793 7.67604 22.793 7.46683C22.793 7.25762 22.9084 7.08789 23.0508 7.08789H28.9744C29.1168 7.08789 29.2323 7.25762 29.2323 7.46683C29.2323 7.67604 29.1168 7.84572 28.9744 7.84572Z" fill="#3C3C3B"/>
<path d="M29.0589 9.14299C29.0589 9.35138 28.9437 9.52188 28.801 9.52188H23.3532C23.2672 9.32355 23.1847 9.12276 23.1039 8.92075C23.0849 8.8689 23.066 8.8159 23.0488 8.76416H28.801C28.9437 8.76416 29.0589 8.93334 29.0589 9.14299Z" fill="#3C3C3B"/>
<path d="M28.7149 10.6913C28.7149 10.901 28.5997 11.0703 28.457 11.0703H24.0855C23.9557 10.8215 23.8302 10.5701 23.709 10.3125H28.457C28.5997 10.3125 28.7149 10.483 28.7149 10.6913Z" fill="#3C3C3B"/>
<path d="M28.1139 12.3674C28.1139 12.5771 27.9987 12.7462 27.856 12.7462H25.056C24.8961 12.4988 24.7423 12.2461 24.5918 11.9885H27.856C27.9987 11.9885 28.1139 12.159 28.1139 12.3674Z" fill="#3C3C3B"/>
<path d="M29.4219 19.1972C29.4219 19.4056 29.3066 19.5761 29.1639 19.5761H25.0762C25.0976 19.5307 25.12 19.4852 25.1423 19.441C25.2335 19.2402 25.3375 19.0305 25.4493 18.8184H29.1639C29.3066 18.8184 29.4219 18.9875 29.4219 19.1972Z" fill="#3C3C3B"/>
<path d="M30.0605 20.8718C30.0605 21.0815 29.9445 21.2507 29.8027 21.2507H24.3359C24.4348 20.993 24.5397 20.7405 24.6497 20.4929H29.8027C29.9445 20.4929 30.0605 20.6635 30.0605 20.8718Z" fill="#3C3C3B"/>
<path d="M30.4969 22.5478C30.4969 22.7575 30.3817 22.9267 30.239 22.9267H23.8086C23.8696 22.6691 23.9401 22.4164 24.0175 22.1689H30.239C30.3817 22.1689 30.4969 22.3394 30.4969 22.5478Z" fill="#3C3C3B"/>
<path d="M30.6304 24.2238C30.6304 24.4335 30.5152 24.6027 30.3725 24.6027H23.5156C23.5414 24.3489 23.5758 24.0962 23.6179 23.845H30.3725C30.5152 23.845 30.6304 24.0142 30.6304 24.2238Z" fill="#3C3C3B"/>
<path d="M30.2663 25.8996C30.2663 26.1093 30.1502 26.2785 30.0083 26.2785H23.4636C23.4541 26.0272 23.4524 25.7746 23.4593 25.5208H30.0083C30.1502 25.5208 30.2663 25.6899 30.2663 25.8996Z" fill="#3C3C3B"/>
<path d="M29.5757 27.5757C29.5757 27.784 29.4605 27.9546 29.3178 27.9546H23.6387C23.5957 27.7045 23.5596 27.4519 23.5312 27.1968H29.3178C29.4605 27.1968 29.5757 27.3661 29.5757 27.5757Z" fill="#3C3C3B"/>
<path d="M28.6289 29.2729C28.6289 29.4813 28.5137 29.6518 28.371 29.6518H24.0571C23.9763 29.403 23.9032 29.1504 23.8379 28.894H28.371C28.5137 28.894 28.6289 29.0632 28.6289 29.2729Z" fill="#3C3C3B"/>
<path d="M11.5281 19.9334H3.26758V16.9587H11.5281V19.9334Z" fill="#3C3C3B"/>
</g>
<defs>
<clipPath id="clip0_7000_2404">
<rect width="32" height="32" fill="white"/>
</clipPath>
</defs>
</svg>
