<svg width="24" height="24" viewBox="0 0 24 24" fill="none" xmlns="http://www.w3.org/2000/svg">
<path d="M18.4141 13.0001L13.7071 8.29309C13.6142 8.20025 13.504 8.1266 13.3827 8.07635C13.2614
8.02611 13.1314 8.00024 13.0001 8.00024C12.8688 8.00024 12.7387 8.02611 12.6174 8.07635C12.4961
8.1266 12.3859 8.20025 12.2931 8.29309C12.2002 8.38594 12.1266 8.49616 12.0763 8.61747C12.0261 
8.73878 12.0002 8.86879 12.0002 9.00009C12.0002 9.1314 12.0261 9.26141 12.0763 9.38272C12.1266 
9.50403 12.2002 9.61425 12.2931 9.70709L14.5861 12.0001H7.00006C6.73485 12.0001 6.48049 12.1055 
6.29296 12.293C6.10542 12.4805 6.00006 12.7349 6.00006 13.0001C6.00006 13.2653 6.10542 13.5197 
6.29296 13.7072C6.48049 13.8947 6.73485 14.0001 7.00006 14.0001H14.5861L12.2931 16.2931C12.1999 
16.3857 12.1259 16.4959 12.0755 16.6172C12.025 16.7386 11.999 16.8687 11.999 17.0001C11.999 17.1315 
12.025 17.2616 12.0755 17.3829C12.1259 17.5043 12.1999 17.6144 12.2931 17.7071C12.4806 17.8946 12.7349 
17.9999 13.0001 17.9999C13.2652 17.9999 13.5195 17.8946 13.7071 17.7071L18.4141 13.0001Z" fill="currentColor"/>
</svg>
