<svg width="24" height="24" viewBox="0 0 24 24" fill="none" xmlns="http://www.w3.org/2000/svg">
  <path d="M23.743 18.2008C22.8496 16.5119 19.7472 14.6806 19.6106 14.6005C19.2119 14.3736 18.7959 14.2535 
18.4066 14.2535C17.8278 14.2535 17.3539 14.5186 17.067 15.0009C16.6131 15.5437 16.0503 16.1782 
15.9137 16.2765C14.8566 16.9937 14.029 16.9123 13.1134 15.9967L8.00299 10.8858C7.09313 9.97598 
7.00948 9.13819 7.7218 8.08684C7.82147 7.94936 8.45592 7.38608 8.99873 6.93182C9.34488 6.72582 
9.58247 6.41971 9.68658 6.0442C9.82495 5.54455 9.72306 4.95681 9.39649 4.38419C9.31952 4.2525 
7.48733 1.14961 5.79929 0.256649C5.48429 0.0898036 5.12924 0.00170898 4.7733 0.00170898C4.18689 
0.00170898 3.63519 0.230399 3.22052 0.644622L2.09131 1.77339C0.305393 3.55886 -0.34108 5.58281 
0.168801 7.78874C0.594147 9.62716 1.8337 11.5835 3.85365 13.603L10.3962 20.1456C12.9528 22.7021 
15.39 23.9986 17.6405 23.9986C19.2956 23.9986 20.839 23.2952 22.2258 21.9083L23.3546 20.7796C24.0407 
20.094 24.1964 19.0573 23.743 18.2008Z" fill="currentColor"/>
</svg>
