<svg width="52" height="52" viewBox="0 0 52 52" fill="none" xmlns="http://www.w3.org/2000/svg">
<g clip-path="url(#clip0_3519_522)">
<mask id="mask0_3519_522" style="mask-type:luminance" maskUnits="userSpaceOnUse" x="0" y="0" width="52" height="52">
<path d="M52 0H0V52H52V0Z" fill="white"/>
<path d="M51.5 0.5V51.5H0.5V0.5H51.5Z" stroke="white" stroke-opacity="0.16"/>
<path d="M32.5 12.1875C34.0234 16.25 37.5781 18.7891 41.6406 19.2969V23.3594C38.5938 23.3594 35.5469 22.3438 33.0078 20.3125V30.4688C33.0078 36.5625 27.9297 41.6406 21.8359 41.6406C15.7422 41.6406 10.6641 36.5625 10.6641 30.4688C10.6641 24.375 15.7422 19.2969 21.8359 19.2969C22.8516 19.2969 23.8672 19.5 24.8828 19.8047V25.3906C23.8672 24.8828 22.8516 24.5781 21.8359 24.5781C18.7891 24.5781 16.25 27.1172 16.25 30.4688C16.25 33.8203 18.7891 36.3594 21.8359 36.3594C24.8828 36.3594 27.4219 33.8203 27.4219 30.4688V10.1562H32.5V12.1875Z" fill="black"/>
<path d="M32 10.6562V12.2783L32.0322 12.3633C33.5707 16.4655 37.091 19.0774 41.1406 19.7295V22.8486C38.3735 22.7438 35.6302 21.7698 33.3203 19.9219L32.5078 19.2725V30.4688C32.5078 36.2864 27.6535 41.1406 21.8359 41.1406C16.0183 41.1406 11.1641 36.2864 11.1641 30.4688C11.1641 24.6511 16.0183 19.7969 21.8359 19.7969C22.6716 19.7969 23.5185 19.9435 24.3828 20.1807V24.6162C23.5505 24.2794 22.7002 24.0781 21.8359 24.0781C18.4957 24.0781 15.75 26.8586 15.75 30.4688C15.75 34.0789 18.4957 36.8594 21.8359 36.8594C25.1761 36.8594 27.9219 34.0789 27.9219 30.4688V10.6562H32Z" stroke="white" stroke-opacity="0.16"/>
</mask>
<g mask="url(#mask0_3519_522)">
<path d="M26 52C40.3594 52 52 40.3594 52 26C52 11.6406 40.3594 0 26 0C11.6406 0 0 11.6406 0 26C0 40.3594 11.6406 52 26 52Z" fill="#F9F9F9" fill-opacity="0.85"/>
<path d="M26 0.5C40.0833 0.5 51.5 11.9167 51.5 26C51.5 40.0833 40.0833 51.5 26 51.5C11.9167 51.5 0.5 40.0833 0.5 26C0.5 11.9167 11.9167 0.5 26 0.5Z" stroke="white" stroke-opacity="0.16"/>
</g>
</g>
<defs>
<clipPath id="clip0_3519_522">
<rect width="52" height="52" fill="white"/>
</clipPath>
</defs>
</svg>
