<svg width="52" height="52" viewBox="0 0 52 52" fill="none" xmlns="http://www.w3.org/2000/svg">
<path d="M26 1.04004C12.2148 1.04004 1.03998 12.2148 1.03998 26C1.03998 39.7852 12.2148 50.96 26 50.96C39.7852 50.96 50.96 39.7852 50.96 26C50.96 12.2148 39.7852 1.04004 26 1.04004ZM35.5992 29.2006C35.5992 29.2006 37.8066 31.3794 38.35 32.3908C38.3656 32.4116 38.3734 32.4324 38.3786 32.4428C38.5996 32.8146 38.6516 33.1032 38.5424 33.319C38.3604 33.6778 37.7364 33.8546 37.5232 33.8702H33.6232C33.3528 33.8702 32.786 33.8 32.0996 33.3268C31.5718 32.9576 31.0518 32.3518 30.5448 31.7616C29.7882 30.8828 29.133 30.1236 28.4726 30.1236C28.3887 30.1235 28.3053 30.1367 28.2256 30.1626C27.7264 30.3238 27.0868 31.0362 27.0868 32.9342C27.0868 33.527 26.6188 33.8676 26.2886 33.8676H24.5024C23.894 33.8676 20.7246 33.6544 17.9166 30.693C14.4794 27.066 11.3854 19.7912 11.3594 19.7236C11.1644 19.253 11.5674 19.0008 12.0068 19.0008H15.9458C16.471 19.0008 16.6426 19.3206 16.7622 19.604C16.9026 19.9342 17.4174 21.2472 18.2624 22.724C19.6326 25.1316 20.4724 26.1092 21.1458 26.1092C21.272 26.1078 21.3961 26.0756 21.5072 26.0156C22.386 25.5268 22.2222 22.3938 22.1832 21.7438C22.1832 21.6216 22.1806 20.3424 21.7308 19.7288C21.4084 19.2842 20.8598 19.1152 20.527 19.0528C20.6617 18.867 20.8391 18.7163 21.0444 18.6134C21.6476 18.3118 22.7344 18.2676 23.8134 18.2676H24.414C25.584 18.2832 25.8856 18.3586 26.3094 18.4652C27.1674 18.6706 27.1856 19.2244 27.1102 21.1198C27.0868 21.658 27.0634 22.2664 27.0634 22.984C27.0634 23.14 27.0556 23.3064 27.0556 23.4832C27.0296 24.4478 26.9984 25.5424 27.6796 25.9922C27.7684 26.048 27.8711 26.0777 27.976 26.078C28.2126 26.078 28.925 26.078 30.8542 22.7682C31.4492 21.7029 31.9662 20.5959 32.4012 19.4558C32.4402 19.3882 32.5546 19.1802 32.6898 19.0996C32.7896 19.0488 32.9002 19.0229 33.0122 19.0242H37.6428C38.1472 19.0242 38.493 19.0996 38.558 19.2946C38.6724 19.604 38.5372 20.5478 36.4234 23.4104L35.4796 24.6558C33.5634 27.1674 33.5634 27.2948 35.5992 29.2006Z" fill="#F9F9F9" fill-opacity="0.85"/>
<path d="M25.9999 1.54004C39.509 1.54004 50.4599 12.491 50.4599 26C50.4599 39.5091 39.509 50.46 25.9999 50.46C12.4909 50.4599 1.53998 39.509 1.53998 26C1.54 12.491 12.4909 1.54006 25.9999 1.54004ZM23.8134 17.7676C23.2701 17.7676 22.7081 17.7787 22.2001 17.8301C21.7028 17.8804 21.2063 17.9736 20.8212 18.166H20.8203C20.5433 18.3048 20.3038 18.5089 20.122 18.7598L19.6591 19.3984L20.4345 19.5439C20.7343 19.6002 21.1202 19.7384 21.3261 20.0225L21.3271 20.0244C21.4732 20.2238 21.5755 20.5887 21.6308 20.9893C21.683 21.3674 21.6835 21.6914 21.6835 21.7441V21.7588L21.6845 21.7734C21.7038 22.0947 21.752 23.0137 21.6904 23.9053C21.6594 24.3532 21.6021 24.7714 21.5087 25.0947C21.4101 25.4361 21.3048 25.5506 21.2675 25.5752C21.2285 25.596 21.1857 25.6076 21.1415 25.6084C21.0419 25.606 20.7946 25.5211 20.3456 24.9951C19.9122 24.4872 19.379 23.6746 18.6972 22.4766L18.6962 22.4756C18.0758 21.3912 17.6384 20.3987 17.3974 19.8271L17.2226 19.4082C17.1596 19.259 17.0532 19.0232 16.8476 18.8311C16.6228 18.6211 16.3228 18.5011 15.9462 18.501H12.0068C11.71 18.501 11.3597 18.5834 11.1054 18.8193C10.9712 18.9439 10.8647 19.112 10.8251 19.3184C10.787 19.5179 10.818 19.7171 10.8925 19.9023V19.9033C10.9153 19.9624 11.7046 21.8156 12.9169 24.1074C14.1272 26.3952 15.7858 29.1716 17.5536 31.0371C20.4882 34.1319 23.8116 34.3671 24.5019 34.3672H26.289C26.8981 34.3669 27.5867 33.8002 27.5869 32.9346C27.5869 31.1118 28.1952 30.6983 28.3788 30.6387L28.3808 30.6377C28.4101 30.6282 28.4408 30.624 28.4716 30.624H28.4726C28.6135 30.624 28.8243 30.7086 29.1425 30.9883C29.4519 31.2602 29.7807 31.6404 30.166 32.0879C30.6594 32.6623 31.2231 33.3234 31.8134 33.7363L31.8154 33.7383C32.5942 34.2752 33.2628 34.3701 33.623 34.3701H37.5419L37.5595 34.3691C37.7336 34.3564 37.9993 34.2904 38.247 34.1807C38.452 34.0898 38.7347 33.9299 38.9169 33.665L38.9882 33.5449C39.2132 33.1004 39.0582 32.6202 38.8251 32.2178C38.8226 32.2123 38.8193 32.2052 38.8154 32.1973C38.8093 32.185 38.799 32.1712 38.789 32.1543H38.79C38.4828 31.5826 37.7489 30.738 37.1386 30.0771C36.8245 29.737 36.5273 29.4295 36.3095 29.207C36.2007 29.0958 36.1111 29.0059 36.0488 28.9434L35.9413 28.8359L35.2841 28.207C35.1027 28.026 34.9566 27.8696 34.8417 27.7266C34.6172 27.447 34.561 27.2781 34.5576 27.1426C34.5538 26.9943 34.6102 26.7835 34.832 26.415C35.0526 26.0485 35.3934 25.5927 35.8769 24.959L35.8779 24.958L36.8222 23.7129L36.8251 23.707C37.8911 22.2635 38.4773 21.2792 38.7822 20.5996C39.0702 19.9576 39.1536 19.4873 39.0312 19.1367H39.0322C39.0317 19.1354 39.0307 19.1341 39.0302 19.1328C39.0289 19.129 39.0287 19.1248 39.0273 19.1211H39.0253C38.905 18.7855 38.5895 18.6572 38.3974 18.6045C38.1759 18.5438 37.9109 18.5244 37.6425 18.5244H33.0126C32.8216 18.523 32.6331 18.5675 32.4628 18.6543L32.4335 18.6699C32.2741 18.765 32.1627 18.9079 32.1025 18.9922C32.0351 19.0865 31.9836 19.1786 31.9677 19.2061L31.9482 19.2402L31.9345 19.2773C31.5092 20.3921 31.0032 21.4747 30.4218 22.5166C29.4655 24.1573 28.8351 24.9339 28.4413 25.2969C28.2477 25.4754 28.1268 25.5387 28.0693 25.5615C28.0252 25.579 28.0096 25.5772 27.9765 25.5771C27.9657 25.5769 27.9555 25.574 27.9462 25.5684C27.7815 25.4547 27.6595 25.2377 27.5956 24.8496C27.5308 24.4553 27.5423 23.9913 27.5556 23.4971V23.4834C27.5556 23.4016 27.5575 23.321 27.5595 23.2373C27.5614 23.1558 27.5634 23.0692 27.5634 22.9844C27.5634 22.2778 27.586 21.6777 27.6093 21.1416V21.1396C27.6281 20.6675 27.6423 20.2647 27.6376 19.9277C27.633 19.594 27.6098 19.2934 27.5439 19.0352C27.4756 18.7677 27.3554 18.5232 27.1435 18.3301C26.9369 18.1421 26.6853 18.0407 26.4257 17.9785H26.4247C25.9627 17.8624 25.6195 17.7836 24.4208 17.7676H23.8134Z" stroke="white" stroke-opacity="0.16"/>
</svg>
