<svg width="52" height="52" viewBox="0 0 52 52" fill="none" xmlns="http://www.w3.org/2000/svg">
<path d="M25.3067 0.693763C10.2411 1.48098 0.296117 13.2965 0.924451 28.196C1.1989 34.7177 3.82056 40.3293 4.44167 46.5188C4.60056 48.1221 4.13834 50.101 5.98723 50.8015C8.26223 51.661 11.7506 50.2165 13.6572 48.8949C14.3072 48.4543 14.9283 47.9415 15.405 47.306C17.3767 48.6132 19.2472 49.8771 21.5944 50.4404C31.9295 52.9177 43.2539 47.2482 48.2878 38.141C57.7489 21.0315 44.9583 -0.331793 25.3067 0.693763ZM19.4567 36.4004C18.6406 37.036 17.8533 37.9027 16.9506 38.401C15.6433 39.1015 15.2389 38.3721 14.7478 37.2165C13.2022 33.5404 13.0145 27.2788 13.9172 23.4293C15.1306 18.1932 19.1822 13.5854 24.7506 13.0943C30.3839 12.596 35.6128 15.456 37.9745 20.6199C43.2033 32.1104 29.8206 43.4565 19.4567 36.4077V36.4004Z" fill="#F9F9F9" fill-opacity="0.85"/>
</svg>
